<?xml version="1.0" encoding="utf-8"?>
<!-- Generator: Adobe Illustrator 24.0.2, SVG Export Plug-In . SVG Version: 6.00 Build 0)  -->
<svg version="1.1" id="Ebene_1" xmlns="http://www.w3.org/2000/svg" xmlns:xlink="http://www.w3.org/1999/xlink" x="0px" y="0px"
	 viewBox="0 0 72 64" style="enable-background:new 0 0 72 64;" xml:space="preserve">
<style type="text/css">
	.st0{fill:#697896;}
</style>
<path class="st0" d="M14,8H2c-1.1,0-2,0.9-2,2v44c0,1.1,0.9,2,2,2h12c1.1,0,2-0.9,2-2V10C16,8.9,15.1,8,14,8z M12,20H4v-4h8V20z"/>
<path class="st0" d="M34,8H22c-1.1,0-2,0.9-2,2v44c0,1.1,0.9,2,2,2h12c1.1,0,2-0.9,2-2V10C36,8.9,35.1,8,34,8z M32,20h-8v-4h8V20z"
	/>
<path class="st0" d="M47.8,11.1l-10.7,5.4c-1,0.5-1.4,1.7-0.9,2.7l18,35.7c0.5,1,1.7,1.4,2.7,0.9l10.7-5.4c1-0.5,1.4-1.7,0.9-2.7
	L50.5,12C50,11,48.8,10.6,47.8,11.1L47.8,11.1z"/>
<path class="st0" d="M58,54c0,1.1-0.9,2-2,2s-2-0.9-2-2s0.9-2,2-2S58,52.9,58,54z"/>
</svg>
