<?xml version="1.0" encoding="UTF-8" standalone="no"?>
<!-- Generator: Adobe Illustrator 24.0.2, SVG Export Plug-In . SVG Version: 6.00 Build 0)  -->

<svg
   xmlns:dc="http://purl.org/dc/elements/1.1/"
   xmlns:cc="http://creativecommons.org/ns#"
   xmlns:rdf="http://www.w3.org/1999/02/22-rdf-syntax-ns#"
   xmlns:svg="http://www.w3.org/2000/svg"
   xmlns="http://www.w3.org/2000/svg"
   xmlns:sodipodi="http://sodipodi.sourceforge.net/DTD/sodipodi-0.dtd"
   xmlns:inkscape="http://www.inkscape.org/namespaces/inkscape"
   version="1.1"
   id="Ebene_1"
   x="0px"
   y="0px"
   viewBox="0 0 95.9 77.7"
   style="enable-background:new 0 0 95.9 77.7;"
   xml:space="preserve"
   sodipodi:docname="groupware.svg"
   inkscape:version="0.92.4 (unknown)"><metadata
   id="metadata43"><rdf:RDF><cc:Work
       rdf:about=""><dc:format>image/svg+xml</dc:format><dc:type
         rdf:resource="http://purl.org/dc/dcmitype/StillImage" /></cc:Work></rdf:RDF></metadata><defs
   id="defs41" /><sodipodi:namedview
   pagecolor="#ffffff"
   bordercolor="#666666"
   borderopacity="1"
   objecttolerance="10"
   gridtolerance="10"
   guidetolerance="10"
   inkscape:pageopacity="0"
   inkscape:pageshadow="2"
   inkscape:window-width="1916"
   inkscape:window-height="1005"
   id="namedview39"
   showgrid="false"
   inkscape:zoom="3.0373232"
   inkscape:cx="-35.511649"
   inkscape:cy="38.849998"
   inkscape:window-x="0"
   inkscape:window-y="73"
   inkscape:window-maximized="0"
   inkscape:current-layer="Ebene_1" />
<style
   type="text/css"
   id="style2">
	.st0{fill:#868681;}
</style>
<g
   id="g14"
   style="fill:#697896;fill-opacity:1">
	<path
   class="st0"
   d="M84.6,13H61v17.7h23.6V13z M74.8,28.8h-9.8v-2h7.9v-3.9h-7.9v-2h7.9V17h-7.9v-2h9.8V28.8z M80.7,28.8h-2V17h-2   v-2h3.9V28.8z"
   id="path4"
   style="fill:#697896;fill-opacity:1" />
	<path
   class="st0"
   d="M64.2,10.3c0.8,0.5,1.9,0.2,2.4-0.6c0.5-0.8,0.2-1.9-0.6-2.4v1.5c0,0,0,0.1,0,0.1c0,0.5-0.4,0.8-0.9,0.8   c-0.5,0-0.8-0.4-0.8-0.9V7.3c-0.3,0.2-0.5,0.4-0.6,0.6C63.1,8.8,63.4,9.9,64.2,10.3z"
   id="path6"
   style="fill:#697896;fill-opacity:1" />
	<path
   class="st0"
   d="M79.7,10.3c0.8,0.5,1.9,0.2,2.4-0.6c0.5-0.8,0.2-1.9-0.6-2.4v1.5c0,0.5-0.4,0.9-0.9,0.9s-0.9-0.4-0.9-0.9V7.3   C79.4,7.5,79.2,7.7,79,8C78.6,8.8,78.8,9.8,79.7,10.3z"
   id="path8"
   style="fill:#697896;fill-opacity:1" />
	<path
   class="st0"
   d="M94.4,0H51.2c-0.8,0-1.5,0.7-1.5,1.5v34.2c0,0.8,0.7,1.5,1.5,1.5h43.2c0.8,0,1.5-0.7,1.5-1.5V1.5   C95.9,0.7,95.2,0,94.4,0z M85.8,32.3v0.4c0,1.1-0.9,1.9-2,2H61.7c-1.1,0-1.9-0.9-2-2v-0.4c-0.5-0.4-0.7-0.9-0.7-1.5V8c0,0,0,0,0,0   c0-0.9,0.8-1.7,1.7-1.7h3.4V3.8c0-0.5,0.4-0.9,0.9-1c0.5,0,0.9,0.5,0.9,1v2.5h13.8V3.8c0-0.1,0-0.1,0-0.2c0.1-0.5,0.5-0.8,1-0.8   c0.5,0.1,0.8,0.5,0.8,1v2.5h3.4c0,0,0,0,0,0c0.9,0,1.7,0.8,1.7,1.7l0,22.8C86.6,31.3,86.3,31.9,85.8,32.3z"
   id="path10"
   style="fill:#697896;fill-opacity:1" />
	<path
   class="st0"
   d="M61,32.7c-0.4,0-0.8-0.1-1.1-0.3c0.3,0.7,1,1.1,1.8,1.1h22.1c0.8,0,1.6-0.4,1.8-1.1c-0.3,0.2-0.7,0.3-1.1,0.3   H61z"
   id="path12"
   style="fill:#697896;fill-opacity:1" />
</g>
<g
   id="g24"
   style="fill:#697896;fill-opacity:1">
	<path
   class="st0"
   d="M28.1,61.3c-0.5-0.3-1.1-0.2-1.5,0.2s-0.2,1.1,0.2,1.5l5.5,4.1c0.5,0.3,1.1,0.2,1.4-0.2h0   c0.3-0.5,0.2-1.1-0.2-1.5L28.1,61.3z"
   id="path16"
   style="fill:#697896;fill-opacity:1" />
	<path
   class="st0"
   d="M33.5,54.1c0.4-0.3,0.4-0.9,0.2-1.3c-0.3-0.5-0.9-0.7-1.4-0.4l-9.6,7l-9.6-7c-0.5-0.3-1.2-0.2-1.5,0.3   c-0.3,0.5-0.2,1.2,0.3,1.5l10.2,7.4c0.4,0.2,0.9,0.2,1.2,0l10.2-7.4V54.1z"
   id="path18"
   style="fill:#697896;fill-opacity:1" />
	<path
   class="st0"
   d="M19,61.5c-0.4-0.4-1.1-0.5-1.5-0.1l-5.5,4c-0.2,0.2-0.3,0.4-0.4,0.7c0,0.6,0.4,1.1,1,1.1   c0.2,0,0.4-0.1,0.6-0.2l5.5-4.1l0.1,0C19.3,62.7,19.4,62.1,19,61.5C19,61.6,19,61.6,19,61.5z"
   id="path20"
   style="fill:#697896;fill-opacity:1" />
	<path
   class="st0"
   d="M44.7,40.4H1.5c-0.8,0-1.5,0.7-1.5,1.5v34.2c0,0.8,0.7,1.5,1.5,1.5h43.2c0.8,0,1.5-0.7,1.5-1.5V41.9   C46.2,41.1,45.5,40.4,44.7,40.4z M37.6,69c0,1-0.8,1.8-1.8,1.8H9.8C8.8,70.9,8,70,8,69V50.5c0-1,0.8-1.8,1.8-1.8h25.9   c1,0,1.8,0.8,1.8,1.8V69z"
   id="path22"
   style="fill:#697896;fill-opacity:1" />
</g>
<path
   class="st0"
   d="M86.6,55.3h-9.2v-9.2h-9.2v9.2H59v9.2h9.2v9.2h9.2v-9.2h9.2V55.3z"
   id="path26"
   style="fill:#697896;fill-opacity:1" />
<g
   id="g36"
   style="fill:#697896;fill-opacity:1">
	<path
   class="st0"
   d="M24,19.7c2,0,3.6-1.6,3.6-3.6c0-2-1.6-3.6-3.6-3.6c-2,0-3.6,1.6-3.6,3.6C20.4,18,22,19.7,24,19.7z"
   id="path28"
   style="fill:#697896;fill-opacity:1" />
	<rect
   x="11.8"
   y="6"
   class="st0"
   width="1.9"
   height="26.5"
   id="rect30"
   style="fill:#697896;fill-opacity:1" />
	<path
   class="st0"
   d="M19.9,26.8H28c1.5,0,2.5-0.9,2.5-2.4c0-2.1-0.5-5.3-3.2-5.3c-0.3,0-1.5,1.3-3.3,1.3s-3-1.3-3.3-1.3   c-2.7,0-3.2,3.2-3.2,5.3C17.4,25.9,18.4,26.8,19.9,26.8z"
   id="path32"
   style="fill:#697896;fill-opacity:1" />
	<path
   class="st0"
   d="M44.7,0.1H1.5C0.7,0.1,0,0.8,0,1.6v34.2c0,0.8,0.7,1.5,1.5,1.5h43.2c0.8,0,1.5-0.7,1.5-1.5V1.6   C46.2,0.8,45.5,0.1,44.7,0.1z M34.5,21.1v13.3H9.8c-1,0-1.9-0.8-1.9-1.9V6c0-1,0.9-1.9,1.9-1.9h24.6V21.1z M38.3,24.9   C38.3,24.9,38.3,24.9,38.3,24.9c0,1-0.9,1.9-1.9,1.9h-0.9v-5.7h2.8V24.9z M38.3,17.3c0,1-0.8,1.9-1.9,1.9h-0.9v-5.7h2.8V17.3z    M38.3,9.7c0,1-0.9,1.9-1.9,1.9h-0.9V6h2.8V9.7z"
   id="path34"
   style="fill:#697896;fill-opacity:1" />
</g>
</svg>
