<?xml version="1.0" encoding="UTF-8" standalone="no"?>
<!-- Generator: Adobe Illustrator 24.0.2, SVG Export Plug-In . SVG Version: 6.00 Build 0)  -->

<svg
   xmlns:dc="http://purl.org/dc/elements/1.1/"
   xmlns:cc="http://creativecommons.org/ns#"
   xmlns:rdf="http://www.w3.org/1999/02/22-rdf-syntax-ns#"
   xmlns:svg="http://www.w3.org/2000/svg"
   xmlns="http://www.w3.org/2000/svg"
   xmlns:sodipodi="http://sodipodi.sourceforge.net/DTD/sodipodi-0.dtd"
   xmlns:inkscape="http://www.inkscape.org/namespaces/inkscape"
   version="1.1"
   id="Ebene_1"
   x="0px"
   y="0px"
   viewBox="0 0 16 16"
   style="enable-background:new 0 0 16 16;"
   xml:space="preserve"
   sodipodi:docname="Adminstration.svg"
   inkscape:version="0.92.4 (unknown)"><metadata
   id="metadata15"><rdf:RDF><cc:Work
       rdf:about=""><dc:format>image/svg+xml</dc:format><dc:type
         rdf:resource="http://purl.org/dc/dcmitype/StillImage" /></cc:Work></rdf:RDF></metadata><defs
   id="defs13" /><sodipodi:namedview
   pagecolor="#ffffff"
   bordercolor="#666666"
   borderopacity="1"
   objecttolerance="10"
   gridtolerance="10"
   guidetolerance="10"
   inkscape:pageopacity="0"
   inkscape:pageshadow="2"
   inkscape:window-width="1916"
   inkscape:window-height="1005"
   id="namedview11"
   showgrid="false"
   inkscape:zoom="14.75"
   inkscape:cx="-9.1864407"
   inkscape:cy="8"
   inkscape:window-x="0"
   inkscape:window-y="73"
   inkscape:window-maximized="0"
   inkscape:current-layer="Ebene_1" />
<style
   type="text/css"
   id="style2">
	.st0{fill:#868681;}
</style>
<title
   id="title4">Element 2610</title>
<g
   id="Ebene_2_1_"
   style="fill:#697896;fill-opacity:1">
	<g
   id="_1607_Icons"
   style="fill:#697896;fill-opacity:1">
		<path
   class="st0"
   d="M10.3,4.7L9.7,5.6l0.7,0.7l0.9-0.6c0.2,0.1,0.4,0.2,0.5,0.2L12,7h1l0.2-1.1c0.2,0,0.4-0.1,0.5-0.2l0.9,0.6    l0.7-0.7l-0.6-0.9c0.1-0.2,0.2-0.4,0.2-0.5L16,4V3l-1.1-0.2c-0.1-0.2-0.1-0.4-0.2-0.5l0.6-0.9l-0.7-0.7l-0.9,0.6    c-0.2-0.1-0.4-0.2-0.5-0.2L13,0h-1l-0.2,1.1c-0.2,0.1-0.4,0.1-0.5,0.2l-0.9-0.6L9.7,1.4l0.6,0.9c-0.1,0.2-0.2,0.4-0.2,0.5L9,3v1    l1.1,0.2C10.1,4.4,10.2,4.5,10.3,4.7L10.3,4.7z M12.5,2.5c0.6,0,1,0.4,1,1s-0.4,1-1,1s-1-0.4-1-1S11.9,2.5,12.5,2.5z M0,10v1    l1,0.2c0,0.1,0,0.3,0.1,0.4l-0.9,0.6l0.4,0.9l1.1-0.2c0.1,0.1,0.1,0.2,0.2,0.3L1.3,14L2,14.7l0.9-0.6c0.1,0.1,0.2,0.1,0.3,0.2    l-0.2,1l0.9,0.4l0.6-0.9l0.4,0.1L5,16h1l0.2-1.1l0.4-0.1l0.6,0.9l0.9-0.4l-0.2-1c0.1-0.1,0.2-0.1,0.3-0.2L9,14.7L9.8,14l-0.6-0.9    l0.2-0.3l1,0.2l0.4-0.9l-0.9-0.6c0-0.1,0-0.2,0.1-0.4L11,11v-1l-1-0.2c0-0.1,0-0.3-0.1-0.4l0.9-0.6l-0.4-0.9l-1,0.2L9.2,7.8L9.8,7    L9,6.3L8.1,6.9L7.8,6.6l0.2-1L7.1,5.3L6.5,6.2L6.2,6.1L6,5H5L4.8,6L4.4,6.1L3.9,5.2L2.9,5.6l0.2,1L2.9,6.8L2,6.2L1.3,7l0.6,0.9    C1.8,8,1.7,8.1,1.7,8.2L0.6,8L0.2,8.9l0.9,0.6c0,0.1-0.1,0.3-0.1,0.4L0,10z M5.5,8.3c1.2,0,2.2,1,2.2,2.2c0,1.2-1,2.2-2.2,2.2    s-2.2-1-2.2-2.2c0,0,0,0,0,0C3.3,9.3,4.3,8.3,5.5,8.3z"
   id="path6"
   style="fill:#697896;fill-opacity:1" />
	</g>
</g>
</svg>