<?xml version="1.0" encoding="UTF-8"?>
<!-- Generator: Adobe Illustrator 24.3.0, SVG Export Plug-In . SVG Version: 6.00 Build 0)  -->
<svg version="1.1" id="Ebene_1" xmlns="http://www.w3.org/2000/svg" xmlns:xlink="http://www.w3.org/1999/xlink" x="0px" y="0px" viewBox="0 0 16 15" style="enable-background:new 0 0 16 15;" xml:space="preserve">
<style type="text/css">
	.st0{fill:#697896;}
	.st1{fill:#FFFFFF;}
</style>
<g id="Ebene_2_1_">
	<g id="_1607_Icons">
		<path class="st0" d="M14.5,0h-13C0.7,0,0,0.7,0,1.5v8C0,10.3,0.7,11,1.5,11H2v4l4.8-4h7.7c0.8,0,1.5-0.7,1.5-1.5v-8    C16,0.7,15.3,0,14.5,0z M6,8H2V7h4V8z M9,6H2V5h7V6z M11,4H2V3h9V4z"/>
	</g>
</g>
<g id="Ebene_2_2_">
	<g id="_1607_Icons_1_">
		<path class="st1" d="M14.7,3.5c-0.1-0.4-0.4-0.6-0.8-0.6c-0.2,0-0.4,0.2-0.5,0.4l-2.1,3l1.2,0.8l2.1-3C14.7,3.9,14.7,3.7,14.7,3.5    z"/>
		<path class="st1" d="M10.9,8.1l0.2-1.5l1.2,0.8L10.9,8.1z"/>
	</g>
</g>
</svg>