<?xml version="1.0" encoding="utf-8"?>
<!-- Generator: Adobe Illustrator 24.0.2, SVG Export Plug-In . SVG Version: 6.00 Build 0)  -->
<svg version="1.1" id="Ebene_1" xmlns="http://www.w3.org/2000/svg" xmlns:xlink="http://www.w3.org/1999/xlink" x="0px" y="0px"
	 viewBox="0 0 64 64" style="enable-background:new 0 0 64 64;" xml:space="preserve">
<style type="text/css">
	.st0{fill:#54616E;}
</style>
<path class="st0" d="M57.9,14.3c-1.4-1.9-3.3-4.1-5.4-6.2S48.2,4,46.3,2.6C43,0.3,41.5,0,40.6,0h-31c-2.8,0-5,2.2-5,5v54
	c0,2.8,2.2,5,5,5h46c2.8,0,5-2.2,5-5V20C60.6,19.1,60.3,17.5,57.9,14.3z M49.7,10.9c1.9,1.9,3.4,3.6,4.5,5.1h-9.6V6.4
	C46,7.5,47.7,9,49.7,10.9z M56.6,59c0,0.5-0.5,1-1,1h-46c-0.5,0-1-0.5-1-1V5c0-0.5,0.5-1,1-1c0,0,31,0,31,0v14c0,1.1,0.9,2,2,2h14
	V59z"/>
<path class="st0" d="M32,56c-1.8,0-3.3-0.5-4.5-1.5c-1.2-1-1.8-2.2-1.8-3.6c0-0.7,0.2-1.2,0.7-1.7c0.5-0.5,1.1-0.7,1.7-0.7
	c0.6,0,1.2,0.2,1.7,0.7c0.4,0.4,0.7,1,0.7,1.7c0,0.4-0.1,0.9-0.2,1.3c-0.1,0.5-0.2,0.7-0.2,0.8c0,0.1,0,0.3,0.3,0.5
	c0.5,0.3,1,0.5,1.7,0.5c0.8,0,1.5-0.3,2.2-0.9c0.7-0.6,1-1.2,1-1.8c0-0.7-0.2-1.3-0.6-1.9c-0.7-0.9-1.9-2-3.7-3.2
	c-2.9-1.9-4.8-3.6-5.9-5.1c-0.8-1.2-1.2-2.4-1.2-3.8c0-1.3,0.4-2.7,1.3-4c0.7-1.1,1.8-2.1,3.3-3c-0.8-0.8-1.3-1.6-1.7-2.3
	c-0.5-0.9-0.7-1.8-0.7-2.7c0-1.7,0.7-3.2,2-4.4c1.3-1.2,3-1.8,5-1.8c1.8,0,3.3,0.5,4.5,1.5c1.2,1,1.8,2.2,1.8,3.5
	c0,0.7-0.3,1.3-0.7,1.8l0,0c-0.3,0.3-0.8,0.6-1.7,0.6c-0.7,0-1.3-0.2-1.8-0.7c-0.5-0.4-0.7-0.9-0.7-1.5c0-0.2,0.1-0.6,0.2-1.2
	c0.1-0.3,0.1-0.5,0.1-0.7c0-0.4-0.1-0.7-0.4-0.9c-0.3-0.2-0.7-0.4-1.3-0.4c-0.9,0-1.6,0.3-2.3,0.8c-0.6,0.6-0.9,1.2-0.9,2
	c0,0.7,0.2,1.3,0.5,1.8c0.6,0.9,1.7,1.8,3.2,2.8c3,2,5.2,3.8,6.3,5.4c0.8,1.2,1.3,2.5,1.3,3.8c0,1.3-0.4,2.7-1.3,4
	c-0.7,1.1-1.8,2.1-3.3,3c0.8,0.8,1.4,1.6,1.7,2.3c0.4,0.8,0.7,1.7,0.7,2.7c0,1.8-0.7,3.3-2,4.5C35.6,55.4,34,56,32,56L32,56z
	 M30.2,31.9c-1.7,1-2.6,2.2-2.6,3.7c0,0.8,0.2,1.6,0.7,2.2c0.7,1,2.1,2.2,4.2,3.7c0.9,0.6,1.7,1.2,2.4,1.7c1.8-1.1,2.6-2.3,2.6-3.6
	c0-0.7-0.3-1.5-0.9-2.4c-0.6-0.9-1.9-2-3.9-3.4C31.8,33.1,30.9,32.5,30.2,31.9L30.2,31.9z"/>
</svg>
