<?xml version="1.0" encoding="UTF-8" standalone="no"?>
<!-- Generator: Adobe Illustrator 24.0.2, SVG Export Plug-In . SVG Version: 6.00 Build 0)  -->

<svg
   xmlns:dc="http://purl.org/dc/elements/1.1/"
   xmlns:cc="http://creativecommons.org/ns#"
   xmlns:rdf="http://www.w3.org/1999/02/22-rdf-syntax-ns#"
   xmlns:svg="http://www.w3.org/2000/svg"
   xmlns="http://www.w3.org/2000/svg"
   xmlns:sodipodi="http://sodipodi.sourceforge.net/DTD/sodipodi-0.dtd"
   xmlns:inkscape="http://www.inkscape.org/namespaces/inkscape"
   version="1.1"
   id="Ebene_1"
   x="0px"
   y="0px"
   viewBox="0 0 301 302"
   style="enable-background:new 0 0 301 302;"
   xml:space="preserve"
   sodipodi:docname="passwort-zuecksetzen.svg"
   inkscape:version="0.92.4 (unknown)"><metadata
   id="metadata15"><rdf:RDF><cc:Work
       rdf:about=""><dc:format>image/svg+xml</dc:format><dc:type
         rdf:resource="http://purl.org/dc/dcmitype/StillImage" /></cc:Work></rdf:RDF></metadata><defs
   id="defs13" /><sodipodi:namedview
   pagecolor="#ffffff"
   bordercolor="#666666"
   borderopacity="1"
   objecttolerance="10"
   gridtolerance="10"
   guidetolerance="10"
   inkscape:pageopacity="0"
   inkscape:pageshadow="2"
   inkscape:window-width="1916"
   inkscape:window-height="1005"
   id="namedview11"
   showgrid="false"
   inkscape:zoom="0.78145695"
   inkscape:cx="-173.89407"
   inkscape:cy="151"
   inkscape:window-x="0"
   inkscape:window-y="73"
   inkscape:window-maximized="0"
   inkscape:current-layer="Ebene_1" />
<style
   type="text/css"
   id="style2">
	.st0{fill:#858580;}
</style>
<g
   id="g8"
   style="fill:#697896;fill-opacity:1">
	<path
   class="st0"
   d="M201.4,135.6h-10v-29.8c0-22-17.9-39.8-40-39.8c-22.1,0-40,17.8-40,39.8v29.8h-10c-5.5,0-10,4.5-10,10v69.6   c0,5.5,4.5,9.9,10,9.9h100.1c5.5,0,10-4.5,10-9.9v-69.6C211.4,140.1,206.9,135.6,201.4,135.6z M156.7,182.6c0,0.3,0.2,0.5,0.2,0.8   V197c0,3-2.5,5.5-5.5,5.5c-3,0-5.5-2.5-5.5-5.5v-13.6c0-0.3,0.1-0.5,0.2-0.8c-4.7-2.1-8.1-6.8-8.1-12.2c0-7.4,6-13.3,13.4-13.3   c7.4,0,13.4,6,13.4,13.3C164.8,175.9,161.5,180.6,156.7,182.6z M171.4,135.6h-40v-29.8c0-11,9-19.9,20-19.9c11,0,20,8.9,20,19.9   V135.6z"
   id="path4"
   style="fill:#697896;fill-opacity:1" />
	<path
   class="st0"
   d="M299.6,126.7c-6.3-39.6-27.7-74.3-60.3-97.9C206.7,5.3,166.8-4.3,127,2C94.7,7,65.5,22.1,42.9,45l-1-0.9   L11.8,14.2v78.4h78.9L58.8,60.9C78,41.3,103,28.4,130.5,24.1c33.9-5.3,67.8,2.8,95.5,22.8c27.7,20,45.9,49.6,51.3,83.3   c11,69.5-36.9,134.9-106.8,145.9c-33.9,5.3-67.8-2.8-95.5-22.8c-27.7-20-45.9-49.6-51.3-83.3l-22.3,3.5   c11.7,73.8,76,126.6,149,126.6c7.8,0,15.7-0.6,23.6-1.8C256.2,285.4,312.5,208.4,299.6,126.7z"
   id="path6"
   style="fill:#697896;fill-opacity:1" />
</g>
</svg>